# xmcd
#
# Track frame offsets: 
#        150
#        18890
#        36702
#        54557
#        77412
#        96877
#        121272
#        135817
#        153160
#        170520
#
# Disc length: 2525 seconds
#
# Revision: 7
# Processed by: cddbd v1.5.2PL0 Copyright (c) Steve Scherf et al.
# Submitted via: ExactAudioCopyFreeDBPlugin 1.0
#
DISCID=7009db0a
DTITLE=Lucky Ali - Sifar
DYEAR=1900
DGENRE=
TTITLE0=Teri yaadein
TTITLE1=Mil jaan se kabhi
TTITLE2=Dekha hai aise bhi
TTITLE3=Dil aise na samajhna
TTITLE4=Nahi rahta dil mein kuch
TTITLE5=Tum ho wahi
TTITLE6=Jheel pe jaise
TTITLE7=Mausam
TTITLE8=baadalon ki gehraaee
TTITLE9=Suntey hi rehtey hain
EXTD=
EXTT0=
EXTT1=
EXTT2=
EXTT3=
EXTT4=
EXTT5=
EXTT6=
EXTT7=
EXTT8=
EXTT9=
PLAYORDER=
